# xmcd
#
# Track frame offsets: 
#        150
#        20786
#        40539
#        62972
#        81800
#        101994
#        117989
#        136539
#        153969
#        173266
#        192367
#        211010
#
# Disc length: 2962 seconds
#
# Revision: 0
# Processed by: cddbd v1.5.2PL0 Copyright (c) Steve Scherf et al.
# Submitted via: ExactAudioCopy v1.1
#
DISCID=940b900c
DTITLE=Miller Anderson - Through the mill
DYEAR=2016
DGENRE=Blues
TTITLE0=Strange days
TTITLE1=John Sugrue
TTITLE2=Where is your heart
TTITLE3=Through the mill
TTITLE4=Life is all we have
TTITLE5=Broken glass
TTITLE6=Old friend
TTITLE7=The Island
TTITLE8=Here come the tears
TTITLE9=Nobody knows
TTITLE10=A hard road down
TTITLE11=Wintertime Blues
EXTD=
EXTT0=
EXTT1=
EXTT2=
EXTT3=
EXTT4=
EXTT5=
EXTT6=
EXTT7=
EXTT8=
EXTT9=
EXTT10=
EXTT11=
PLAYORDER=
